<?xml version="1.0" standalone="no"?>
<!DOCTYPE svg PUBLIC "-//W3C//DTD SVG 20010904//EN"
 "http://www.w3.org/TR/2001/REC-SVG-20010904/DTD/svg10.dtd">
<svg version="1.0" xmlns="http://www.w3.org/2000/svg"
 width="377.000000pt" height="286.000000pt" viewBox="0 0 377.000000 286.000000"
 preserveAspectRatio="xMidYMid meet">

<g transform="translate(0.000000,286.000000) scale(0.100000,-0.100000)"
fill="#000000" stroke="none">
<path d="M2738 2723 c-9 -2 -20 -13 -23 -24 -4 -10 -11 -19 -16 -19 -5 0 -12
-8 -16 -17 -3 -10 -16 -29 -28 -43 -13 -14 -36 -43 -51 -66 -36 -51 -197 -254
-273 -345 -17 -20 -31 -41 -31 -46 0 -16 -76 -93 -92 -93 -8 0 -41 20 -72 45
-32 25 -61 45 -65 45 -3 0 -22 15 -42 33 -19 17 -48 41 -64 52 -15 11 -35 28
-44 38 -8 9 -21 17 -27 17 -6 0 -17 7 -24 16 -30 35 -47 35 -80 3 l-31 -32 22
-23 c12 -13 26 -24 31 -24 5 0 56 -27 113 -60 57 -33 109 -60 114 -60 6 0 11
-4 11 -8 0 -5 16 -16 36 -25 30 -15 34 -20 24 -32 -7 -8 -23 -15 -36 -15 -13
0 -41 -6 -61 -14 -21 -8 -71 -20 -111 -26 -40 -5 -91 -17 -115 -25 -23 -8 -66
-15 -95 -15 -29 0 -68 -7 -87 -15 -19 -7 -63 -17 -98 -21 -34 -4 -73 -12 -87
-19 -14 -7 -54 -15 -89 -19 -35 -3 -69 -10 -75 -15 -6 -6 -36 -13 -66 -16 -30
-3 -73 -12 -95 -20 -22 -7 -65 -15 -95 -18 -73 -7 -142 -39 -174 -81 -14 -19
-26 -39 -26 -44 0 -5 -7 -15 -15 -22 -20 -16 -21 -150 -1 -188 7 -15 16 -60
19 -100 3 -41 11 -80 17 -87 6 -7 15 -46 19 -86 5 -41 13 -86 19 -100 6 -14
13 -52 17 -85 3 -32 12 -77 20 -99 7 -22 16 -71 20 -110 4 -38 12 -79 17 -90
6 -10 15 -55 19 -98 4 -43 12 -84 18 -91 6 -7 15 -52 20 -100 6 -49 14 -93 19
-100 5 -6 12 -33 14 -61 9 -93 73 -161 172 -179 73 -14 104 -8 203 39 39 19
77 35 83 35 7 0 28 7 48 16 88 40 123 55 227 98 61 26 122 53 137 61 14 8 32
15 40 15 7 0 29 8 48 18 19 11 47 22 63 26 15 3 27 10 27 15 0 5 15 13 33 16
17 4 41 14 52 21 11 8 25 14 33 14 18 0 139 58 147 70 3 5 17 10 31 10 13 0
41 9 61 20 21 11 45 20 54 20 9 0 22 6 28 14 7 8 24 17 39 20 15 4 43 14 62
23 19 9 55 25 80 36 25 11 58 26 73 33 16 8 33 14 38 14 10 0 100 39 149 64
14 7 38 16 54 20 29 7 95 48 150 94 16 13 40 45 53 70 20 40 22 56 17 112 -4
36 -10 70 -15 76 -5 6 -14 49 -20 94 -5 46 -14 91 -19 101 -5 9 -13 50 -16 91
-4 40 -12 84 -19 98 -7 14 -16 57 -20 95 -4 39 -12 76 -17 83 -6 7 -14 51 -19
98 -4 47 -12 91 -18 98 -6 7 -15 40 -19 73 -5 33 -14 66 -20 74 -7 8 -21 26
-33 41 -11 15 -43 39 -72 54 -47 24 -59 26 -125 20 -40 -3 -83 -13 -95 -21
-12 -8 -41 -15 -65 -15 -23 0 -58 -6 -76 -14 -18 -7 -62 -17 -97 -20 -35 -4
-76 -9 -91 -12 -20 -4 -28 -1 -32 14 -5 15 11 37 67 93 40 41 93 99 117 129
25 30 58 69 75 86 26 26 88 94 218 237 39 44 39 43 -43 61 -8 2 -23 1 -32 -1z
m148 -726 c28 -31 45 -61 49 -85 4 -20 12 -57 20 -82 7 -25 16 -74 20 -109 4
-35 12 -78 17 -95 6 -17 16 -62 23 -101 8 -38 19 -92 24 -120 6 -27 15 -75 20
-105 5 -30 15 -78 22 -107 6 -29 9 -67 5 -85 -12 -63 -96 -134 -186 -158 -55
-14 -131 -41 -176 -61 -22 -11 -49 -19 -60 -19 -10 0 -28 -7 -38 -15 -11 -8
-34 -15 -52 -15 -17 0 -43 -9 -57 -20 -14 -11 -36 -20 -49 -20 -12 0 -35 -6
-50 -14 -15 -8 -42 -17 -60 -21 -18 -4 -42 -13 -53 -19 -11 -7 -38 -16 -60
-20 -21 -4 -51 -14 -65 -21 -14 -7 -41 -16 -60 -20 -19 -4 -41 -12 -49 -19
-14 -11 -54 -24 -160 -51 -30 -8 -59 -19 -64 -24 -6 -6 -20 -11 -32 -11 -11 0
-36 -8 -55 -19 -19 -10 -50 -22 -68 -26 -18 -4 -45 -13 -60 -21 -15 -8 -35
-14 -45 -14 -9 0 -34 -9 -54 -20 -21 -11 -49 -20 -63 -20 -14 -1 -36 -7 -50
-15 -14 -8 -41 -14 -61 -15 -44 0 -124 42 -147 79 -9 14 -20 28 -24 31 -12 10
-28 61 -28 94 0 17 -5 37 -11 43 -7 7 -15 50 -19 97 -5 50 -15 94 -24 108 -10
14 -16 43 -16 76 0 29 -7 68 -15 88 -8 19 -17 69 -21 112 -4 42 -12 88 -19
102 -18 34 -35 206 -27 256 13 73 96 147 179 158 28 3 64 13 80 21 15 8 42 15
58 15 17 1 48 7 70 15 22 8 69 20 105 25 35 6 69 15 75 20 5 4 28 11 50 15 22
4 56 12 75 19 19 8 58 17 85 21 28 4 55 11 61 16 6 5 39 13 75 18 35 5 78 16
94 25 17 9 47 16 68 16 21 0 52 6 70 14 18 7 55 16 82 20 27 5 62 14 77 22 15
8 37 14 48 14 24 0 141 30 235 61 45 14 83 18 154 16 l93 -2 44 -48z"/>
<path d="M1942 1680 c-29 -11 -70 -33 -91 -50 -22 -16 -43 -30 -48 -30 -20 0
-73 -79 -73 -108 0 -31 14 -42 53 -42 12 0 36 -9 52 -20 17 -11 40 -20 52 -20
12 0 37 -6 55 -14 36 -16 107 -40 181 -61 60 -17 67 -7 57 90 -7 74 -40 142
-80 167 -26 16 -26 45 0 53 22 7 86 -12 111 -32 8 -7 19 -13 23 -13 16 0 79
-58 108 -100 82 -120 73 -282 -22 -393 -32 -38 -75 -77 -85 -77 -5 -1 -28 -9
-50 -20 -31 -15 -62 -19 -138 -20 -94 0 -99 1 -129 29 -17 16 -28 33 -24 39 3
5 26 13 51 16 25 4 45 11 45 16 0 5 17 14 38 20 41 12 125 101 120 127 -3 15
-50 36 -116 53 -18 4 -38 13 -45 18 -7 6 -30 14 -52 18 -22 4 -49 13 -60 20
-11 8 -26 14 -35 14 -8 0 -32 9 -53 20 -42 23 -87 26 -105 8 -20 -20 -15 -136
8 -198 43 -114 59 -138 132 -206 71 -64 227 -106 313 -83 22 6 56 14 75 18 73
16 188 112 216 181 4 8 17 38 30 67 19 41 24 69 24 135 0 50 -5 93 -14 109 -7
14 -16 37 -20 52 -17 70 -127 174 -223 213 -74 31 -201 32 -281 4z"/>
<path d="M3310 2660 c0 -5 7 -10 15 -10 8 0 15 5 15 10 0 6 -7 10 -15 10 -8 0
-15 -4 -15 -10z"/>
<path d="M2040 2593 c-58 -7 -184 -17 -280 -22 -197 -9 -541 -33 -795 -56 -93
-8 -231 -18 -305 -20 -120 -5 -231 -14 -368 -31 -54 -7 -104 -49 -120 -102 -9
-29 -9 -63 -2 -128 6 -49 14 -170 20 -269 5 -99 16 -261 24 -360 9 -99 20
-256 26 -350 6 -93 15 -215 20 -270 5 -55 9 -143 10 -195 0 -53 7 -150 15
-215 8 -66 15 -147 15 -180 0 -79 23 -124 75 -149 22 -11 58 -19 80 -19 123 3
433 22 447 28 19 8 16 42 -7 80 -6 11 -26 56 -43 100 -17 44 -38 94 -46 110
-9 17 -16 35 -16 42 0 6 -7 24 -15 40 -16 31 -39 85 -76 178 -12 33 -28 67
-35 75 -6 8 -15 29 -18 45 -4 17 -23 61 -42 99 -19 39 -34 73 -34 77 0 4 -17
45 -39 91 -21 46 -55 126 -76 178 -20 52 -53 128 -72 169 -47 100 -54 173 -23
230 13 22 33 44 44 47 12 4 54 22 94 40 40 19 78 34 85 34 7 0 21 6 32 14 11
7 52 26 90 40 79 31 147 60 187 82 14 8 32 14 40 14 7 0 50 18 96 40 46 22 86
40 90 40 10 0 278 116 314 136 14 7 35 14 46 14 11 0 25 7 32 15 7 8 20 15 29
15 9 0 39 11 66 25 28 13 57 25 66 25 8 0 19 4 25 9 5 6 45 24 88 41 44 18 87
36 95 40 26 14 102 47 171 74 36 15 72 31 81 36 9 4 35 14 58 20 22 6 41 15
41 19 0 8 -52 22 -74 20 -6 -1 -58 -8 -116 -16z"/>
<path d="M3460 2580 c0 -5 5 -10 10 -10 6 0 10 5 10 10 0 6 -4 10 -10 10 -5 0
-10 -4 -10 -10z"/>
<path d="M3250 2209 c0 -5 5 -7 10 -4 6 3 10 8 10 11 0 2 -4 4 -10 4 -5 0 -10
-5 -10 -11z"/>
<path d="M3402 1880 c0 -14 2 -19 5 -12 2 6 2 18 0 25 -3 6 -5 1 -5 -13z"/>
<path d="M3540 938 c-109 -50 -178 -81 -270 -119 -30 -12 -75 -31 -100 -42
-25 -10 -58 -25 -75 -32 -37 -15 -86 -37 -145 -63 -25 -11 -74 -32 -110 -47
-36 -14 -77 -32 -92 -40 -14 -8 -35 -15 -46 -15 -11 0 -27 -7 -35 -15 -8 -7
-28 -17 -43 -21 -16 -4 -65 -24 -109 -45 -66 -31 -186 -80 -277 -112 -25 -9
-22 -26 5 -32 13 -4 110 1 217 10 107 9 278 21 380 26 102 5 223 14 270 20 47
6 160 15 251 18 186 8 206 15 253 84 31 46 32 77 10 267 -18 159 -22 180 -32
179 -4 0 -27 -10 -52 -21z"/>
</g>
</svg>
